# xmcd
#
# Track frame offsets:
#	150
#	17039
#	33490
#	54078
#	67898
#	83389
#	101037
#	118264
#	133368
#	147968
#	160272
#	173171
#	190891
#
# Disc length: 2744 seconds
#
# Revision: 1
# Processed by: cddbd v1.5.2PL0 Copyright (c) Steve Scherf et al.
# Submitted via: audiograbber 1.83.01
#
DISCID=ac0ab60d
DTITLE=Nicki Gillis - Lucy's Daughter
DYEAR=2006
DGENRE=Country
TTITLE0=Remember Me
TTITLE1=Honey, I Don't Have Time
TTITLE2=Flame Trees
TTITLE3=Little Bluer Than That
TTITLE4=Ballad Of Lucy Jordan
TTITLE5=Real Live Woman
TTITLE6=Leavin'  You For Myself
TTITLE7=Thorn In My Side
TTITLE8=Be A Star
TTITLE9=Once In A Very Blue Moon
TTITLE10=Watch The Wildflowers Grow
TTITLE11=No One To Listen But Wind
TTITLE12=On The Mountain
EXTD=
EXTT0=
EXTT1=
EXTT2=
EXTT3=
EXTT4=
EXTT5=
EXTT6=
EXTT7=
EXTT8=
EXTT9=
EXTT10=
EXTT11=
EXTT12=
PLAYORDER=
